<mxfile host="app.diagrams.net" modified="2022-09-01T13:57:18.978Z" agent="5.0 (Windows NT 10.0; Win64; x64) AppleWebKit/537.36 (KHTML, like Gecko) Chrome/104.0.0.0 Safari/537.36" etag="LQRwAWG3eIjqSdHxvEsg" version="20.2.7" type="github">
  <diagram name="Page-1" id="e7e014a7-5840-1c2e-5031-d8a46d1fe8dd">
    <mxGraphModel dx="1022" dy="428" grid="1" gridSize="10" guides="1" tooltips="1" connect="1" arrows="1" fold="1" page="1" pageScale="1" pageWidth="1169" pageHeight="826" background="none" math="0" shadow="0">
      <root>
        <mxCell id="0" />
        <mxCell id="1" parent="0" />
        <mxCell id="WGar058YX-czErjZ4bIj-47" value="" style="html=1;" vertex="1" parent="1">
          <mxGeometry x="80" y="200" width="760" height="1080" as="geometry" />
        </mxCell>
        <mxCell id="WGar058YX-czErjZ4bIj-48" value="ACTIVITY DIAGRAM" style="html=1;" vertex="1" parent="1">
          <mxGeometry x="80" y="200" width="760" height="50" as="geometry" />
        </mxCell>
        <mxCell id="WGar058YX-czErjZ4bIj-49" value="" style="html=1;" vertex="1" parent="1">
          <mxGeometry x="80" y="250" width="380" height="1030" as="geometry" />
        </mxCell>
        <mxCell id="WGar058YX-czErjZ4bIj-50" value="USER" style="html=1;" vertex="1" parent="1">
          <mxGeometry x="80" y="250" width="380" height="50" as="geometry" />
        </mxCell>
        <mxCell id="WGar058YX-czErjZ4bIj-51" value="SYSTEM" style="html=1;" vertex="1" parent="1">
          <mxGeometry x="460" y="250" width="380" height="50" as="geometry" />
        </mxCell>
        <mxCell id="WGar058YX-czErjZ4bIj-66" style="edgeStyle=orthogonalEdgeStyle;rounded=0;orthogonalLoop=1;jettySize=auto;html=1;exitX=0.5;exitY=1;exitDx=0;exitDy=0;entryX=0.5;entryY=0;entryDx=0;entryDy=0;" edge="1" parent="1" source="WGar058YX-czErjZ4bIj-53" target="WGar058YX-czErjZ4bIj-54">
          <mxGeometry relative="1" as="geometry" />
        </mxCell>
        <mxCell id="WGar058YX-czErjZ4bIj-53" value="" style="ellipse;whiteSpace=wrap;html=1;aspect=fixed;" vertex="1" parent="1">
          <mxGeometry x="230" y="320" width="70" height="70" as="geometry" />
        </mxCell>
        <mxCell id="WGar058YX-czErjZ4bIj-67" style="edgeStyle=orthogonalEdgeStyle;rounded=0;orthogonalLoop=1;jettySize=auto;html=1;exitX=0.5;exitY=1;exitDx=0;exitDy=0;entryX=0.5;entryY=0;entryDx=0;entryDy=0;" edge="1" parent="1" source="WGar058YX-czErjZ4bIj-54" target="WGar058YX-czErjZ4bIj-55">
          <mxGeometry relative="1" as="geometry" />
        </mxCell>
        <mxCell id="WGar058YX-czErjZ4bIj-54" value="Mengakses URL web / aplikasi android" style="rounded=1;whiteSpace=wrap;html=1;" vertex="1" parent="1">
          <mxGeometry x="140" y="413" width="250" height="55" as="geometry" />
        </mxCell>
        <mxCell id="WGar058YX-czErjZ4bIj-68" style="edgeStyle=orthogonalEdgeStyle;rounded=0;orthogonalLoop=1;jettySize=auto;html=1;exitX=1;exitY=0.5;exitDx=0;exitDy=0;entryX=0;entryY=0.5;entryDx=0;entryDy=0;" edge="1" parent="1" source="WGar058YX-czErjZ4bIj-55" target="WGar058YX-czErjZ4bIj-56">
          <mxGeometry relative="1" as="geometry" />
        </mxCell>
        <mxCell id="WGar058YX-czErjZ4bIj-55" value="Pilih fitur yang diinginkan" style="rounded=1;whiteSpace=wrap;html=1;" vertex="1" parent="1">
          <mxGeometry x="140" y="500" width="250" height="55" as="geometry" />
        </mxCell>
        <mxCell id="WGar058YX-czErjZ4bIj-69" style="edgeStyle=orthogonalEdgeStyle;rounded=0;orthogonalLoop=1;jettySize=auto;html=1;exitX=0.5;exitY=1;exitDx=0;exitDy=0;entryX=1;entryY=0.5;entryDx=0;entryDy=0;" edge="1" parent="1" source="WGar058YX-czErjZ4bIj-56" target="WGar058YX-czErjZ4bIj-57">
          <mxGeometry relative="1" as="geometry" />
        </mxCell>
        <mxCell id="WGar058YX-czErjZ4bIj-56" value="Menampilkan halaman (page) fitur" style="rounded=1;whiteSpace=wrap;html=1;" vertex="1" parent="1">
          <mxGeometry x="530" y="500" width="250" height="55" as="geometry" />
        </mxCell>
        <mxCell id="WGar058YX-czErjZ4bIj-70" style="edgeStyle=orthogonalEdgeStyle;rounded=0;orthogonalLoop=1;jettySize=auto;html=1;exitX=0.5;exitY=1;exitDx=0;exitDy=0;entryX=0;entryY=0.5;entryDx=0;entryDy=0;" edge="1" parent="1" source="WGar058YX-czErjZ4bIj-57" target="WGar058YX-czErjZ4bIj-58">
          <mxGeometry relative="1" as="geometry" />
        </mxCell>
        <mxCell id="WGar058YX-czErjZ4bIj-57" value="Menginputkan teks&amp;nbsp;" style="rounded=1;whiteSpace=wrap;html=1;" vertex="1" parent="1">
          <mxGeometry x="140" y="600" width="250" height="55" as="geometry" />
        </mxCell>
        <mxCell id="WGar058YX-czErjZ4bIj-71" style="edgeStyle=orthogonalEdgeStyle;rounded=0;orthogonalLoop=1;jettySize=auto;html=1;exitX=0.5;exitY=1;exitDx=0;exitDy=0;entryX=0.5;entryY=0;entryDx=0;entryDy=0;" edge="1" parent="1" source="WGar058YX-czErjZ4bIj-58" target="WGar058YX-czErjZ4bIj-60">
          <mxGeometry relative="1" as="geometry" />
        </mxCell>
        <mxCell id="WGar058YX-czErjZ4bIj-58" value="Menghubungkan ke API&amp;nbsp;" style="rounded=1;whiteSpace=wrap;html=1;" vertex="1" parent="1">
          <mxGeometry x="540" y="655" width="250" height="55" as="geometry" />
        </mxCell>
        <mxCell id="WGar058YX-czErjZ4bIj-72" style="edgeStyle=orthogonalEdgeStyle;rounded=0;orthogonalLoop=1;jettySize=auto;html=1;exitX=0.5;exitY=1;exitDx=0;exitDy=0;entryX=0.5;entryY=0;entryDx=0;entryDy=0;" edge="1" parent="1" source="WGar058YX-czErjZ4bIj-60" target="WGar058YX-czErjZ4bIj-64">
          <mxGeometry relative="1" as="geometry" />
        </mxCell>
        <mxCell id="WGar058YX-czErjZ4bIj-60" value="Submit prompt text + teks yang diinputkan ke GPT-3" style="rounded=1;whiteSpace=wrap;html=1;" vertex="1" parent="1">
          <mxGeometry x="540" y="743" width="250" height="55" as="geometry" />
        </mxCell>
        <mxCell id="WGar058YX-czErjZ4bIj-74" style="edgeStyle=orthogonalEdgeStyle;rounded=0;orthogonalLoop=1;jettySize=auto;html=1;exitX=0.5;exitY=1;exitDx=0;exitDy=0;entryX=1;entryY=0.5;entryDx=0;entryDy=0;" edge="1" parent="1" source="WGar058YX-czErjZ4bIj-61" target="WGar058YX-czErjZ4bIj-62">
          <mxGeometry relative="1" as="geometry" />
        </mxCell>
        <mxCell id="WGar058YX-czErjZ4bIj-61" value="Generate teks output" style="rounded=1;whiteSpace=wrap;html=1;" vertex="1" parent="1">
          <mxGeometry x="540" y="910" width="250" height="55" as="geometry" />
        </mxCell>
        <mxCell id="WGar058YX-czErjZ4bIj-75" style="edgeStyle=orthogonalEdgeStyle;rounded=0;orthogonalLoop=1;jettySize=auto;html=1;exitX=0.5;exitY=1;exitDx=0;exitDy=0;entryX=0.5;entryY=0;entryDx=0;entryDy=0;" edge="1" parent="1" source="WGar058YX-czErjZ4bIj-62" target="WGar058YX-czErjZ4bIj-63">
          <mxGeometry relative="1" as="geometry" />
        </mxCell>
        <mxCell id="WGar058YX-czErjZ4bIj-62" value="Output ditampilkan di halaman web" style="rounded=1;whiteSpace=wrap;html=1;" vertex="1" parent="1">
          <mxGeometry x="145" y="980" width="250" height="55" as="geometry" />
        </mxCell>
        <mxCell id="WGar058YX-czErjZ4bIj-76" style="edgeStyle=orthogonalEdgeStyle;rounded=0;orthogonalLoop=1;jettySize=auto;html=1;exitX=0.5;exitY=1;exitDx=0;exitDy=0;entryX=0.5;entryY=0;entryDx=0;entryDy=0;" edge="1" parent="1" source="WGar058YX-czErjZ4bIj-63" target="WGar058YX-czErjZ4bIj-65">
          <mxGeometry relative="1" as="geometry" />
        </mxCell>
        <mxCell id="WGar058YX-czErjZ4bIj-63" value="Melihat, memodifikasi, dan menyimpan hasil teks output" style="rounded=1;whiteSpace=wrap;html=1;" vertex="1" parent="1">
          <mxGeometry x="145" y="1080" width="250" height="55" as="geometry" />
        </mxCell>
        <mxCell id="WGar058YX-czErjZ4bIj-73" style="edgeStyle=orthogonalEdgeStyle;rounded=0;orthogonalLoop=1;jettySize=auto;html=1;exitX=0.5;exitY=1;exitDx=0;exitDy=0;entryX=0.5;entryY=0;entryDx=0;entryDy=0;" edge="1" parent="1" source="WGar058YX-czErjZ4bIj-64" target="WGar058YX-czErjZ4bIj-61">
          <mxGeometry relative="1" as="geometry" />
        </mxCell>
        <mxCell id="WGar058YX-czErjZ4bIj-64" value="Tokenisasi" style="rounded=1;whiteSpace=wrap;html=1;" vertex="1" parent="1">
          <mxGeometry x="540" y="826" width="250" height="55" as="geometry" />
        </mxCell>
        <mxCell id="WGar058YX-czErjZ4bIj-65" value="" style="ellipse;whiteSpace=wrap;html=1;aspect=fixed;" vertex="1" parent="1">
          <mxGeometry x="235" y="1180" width="70" height="70" as="geometry" />
        </mxCell>
      </root>
    </mxGraphModel>
  </diagram>
</mxfile>
